<svg xmlns="http://www.w3.org/2000/svg" viewBox="0 0 180 180" fill="none" shape-rendering="auto" aria-hidden="true"><!-- Generated by DiceBear (https://www.dicebear.com) --><metadata xmlns:rdf="http://www.w3.org/1999/02/22-rdf-syntax-ns#" xmlns:xsi="http://www.w3.org/2001/XMLSchema-instance" xmlns:dc="http://purl.org/dc/elements/1.1/" xmlns:dcterms="http://purl.org/dc/terms/"><rdf:RDF><rdf:Description><dc:title>Bottts</dc:title><dc:creator>Pablo Stanley</dc:creator><dc:source xsi:type="dcterms:URI">https://bottts.com/</dc:source><dcterms:license xsi:type="dcterms:URI">https://bottts.com/</dcterms:license><dc:rights>Remix of “Bottts” (https://bottts.com/) by “Pablo Stanley”, licensed under “Free for personal and commercial use” (https://bottts.com/)</dc:rights></rdf:Description></rdf:RDF></metadata><defs><g id="sides-squareAssymetric-f400a18d"><mask id="sidesSquareAssymetric-a" style="mask-type:luminance"><rect x="4" y="31" width="36" height="30" rx="4" fill="white"/><rect x="14" y="15" width="26" height="30" rx="4" fill="white"/><rect x="133" y="23" width="36" height="30" rx="4" fill="white"/><rect x="128" y="8" width="36" height="60" rx="4" fill="white"/></mask><g mask="url(#sidesSquareAssymetric-a)"><path d="M-6 0h180v76H-6z" fill="#978d87"/><path d="M-6 0h180v76H-6z" fill="white" fill-opacity=".3"/><path fill="black" fill-opacity=".1" d="M-6 47h180v29H-6z"/><circle cx="155" cy="20" r="5" fill="white" fill-opacity=".6"/><circle cx="155" cy="36" r="5" fill="white" fill-opacity=".6"/></g></g><filter id="topGlowingBulb02-a" x="14" y="5.59" width="56" height="47" filterUnits="userSpaceOnUse" color-interpolation-filters="sRGB"><feFlood flood-opacity="0" result="r0"/><feColorMatrix in="SourceAlpha" values="0 0 0 0 0 0 0 0 0 0 0 0 0 0 0 0 0 0 127 0" result="r1"/><feOffset/><feGaussianBlur stdDeviation="4"/><feColorMatrix values="0 0 0 0 1 0 0 0 0 1 0 0 0 0 1 0 0 0 0.5 0"/><feBlend in2="r0" result="r2"/><feBlend in="SourceGraphic" in2="r2" result="r3"/><feColorMatrix in="SourceAlpha" values="0 0 0 0 0 0 0 0 0 0 0 0 0 0 0 0 0 0 127 0" result="r1"/><feOffset/><feGaussianBlur stdDeviation="2"/><feComposite in2="r1" operator="arithmetic" k2="-1" k3="1"/><feColorMatrix values="0 0 0 0 1 0 0 0 0 1 0 0 0 0 1 0 0 0 0.5 0"/><feBlend in2="r3" result="r4"/></filter><g id="top-glowingBulb02-f400a18d"><g filter="url(#topGlowingBulb02-a)"><path fill-rule="evenodd" clip-rule="evenodd" d="M22 33.6a20 20 0 1 1 40 0v11H22z" fill="white" fill-opacity=".3"/></g><ellipse cx="42" cy="30.59" rx="4" ry="6" fill="white" fill-opacity=".6"/><path d="M42 16.1c4.93 0 9.37 2.12 12.44 5.51m2.43 3.5q1.05 1.98 1.53 4.23" stroke="white" stroke-width="2" stroke-linecap="round"/><rect x="12" y="36.59" width="60" height="16" rx="1" fill="#48494B"/></g><g id="head-square03-f400a18d"><mask id="headSquare03-a" style="mask-type:luminance"><path fill-rule="evenodd" clip-rule="evenodd" d="M0 18A18 18 0 0 1 18 0h94a18 18 0 0 1 18 18v27.15a40 40 0 0 1-2.28 13.31L110.24 108a18 18 0 0 1-16.98 12H36.74a18 18 0 0 1-16.98-12L2.28 58.45A40 40 0 0 1 0 45.15z" fill="white"/></mask><g mask="url(#headSquare03-a)"><path d="M-2-2h134v124H-2z" fill="#978d87"/></g></g><g id="mouth-square02-f400a18d"><rect x="12" y="4" width="44" height="4" rx="2" fill="black" fill-opacity=".8"/></g><g id="eyes-eva-f400a18d"><path fill-rule="evenodd" clip-rule="evenodd" d="M53 0c34.75 0 49 17.47 49 31S82.4 48 53 48C23.95 48 2 44.53 2 31S17.11 0 53 0" fill="black" fill-opacity=".8"/><path fill-rule="evenodd" clip-rule="evenodd" d="M28.82 34.65C22.29 33.3 17.58 28.31 18.3 23.5c.72-4.78 6.6-7.57 13.12-6.22 6.53 1.36 11.24 6.35 10.52 11.15s-6.6 7.59-13.12 6.23m46.6 0C68.9 36 63.02 33.2 62.3 28.4s4-9.8 10.52-11.15 12.4 1.44 13.12 6.24-4 9.8-10.52 11.14" fill="#25A6F5"/></g><clipPath id="clip-f400a18d"><rect width="180" height="180" rx="0" ry="0"/></clipPath></defs><g clip-path="url(#clip-f400a18d)"><use transform="translate(6 66)" href="#sides-squareAssymetric-f400a18d"/><use transform="translate(49 -.6)" href="#top-glowingBulb02-f400a18d"/><use transform="translate(25 44)" href="#head-square03-f400a18d"/><use transform="translate(56 128)" href="#mouth-square02-f400a18d"/><use transform="translate(38 76)" href="#eyes-eva-f400a18d"/></g></svg>