<svg xmlns="http://www.w3.org/2000/svg" viewBox="0 0 180 180" fill="none" shape-rendering="auto" aria-hidden="true"><!-- Generated by DiceBear (https://www.dicebear.com) --><metadata xmlns:rdf="http://www.w3.org/1999/02/22-rdf-syntax-ns#" xmlns:xsi="http://www.w3.org/2001/XMLSchema-instance" xmlns:dc="http://purl.org/dc/elements/1.1/" xmlns:dcterms="http://purl.org/dc/terms/"><rdf:RDF><rdf:Description><dc:title>Bottts</dc:title><dc:creator>Pablo Stanley</dc:creator><dc:source xsi:type="dcterms:URI">https://bottts.com/</dc:source><dcterms:license xsi:type="dcterms:URI">https://bottts.com/</dcterms:license><dc:rights>Remix of “Bottts” (https://bottts.com/) by “Pablo Stanley”, licensed under “Free for personal and commercial use” (https://bottts.com/)</dc:rights></rdf:Description></rdf:RDF></metadata><defs><g id="sides-cables02-ecaf09c4"><g opacity=".9"><ellipse cx="26.5" cy="23" rx="16.5" ry="18" stroke="#2A3544" stroke-width="6"/><path d="M23.51 36.76c-7.4 4.29-17 1.55-21.42-6.1" stroke="#2A3544" stroke-width="4"/><ellipse cx="22.5" cy="52.5" rx="16.5" ry="14.5" stroke="#2A3544" stroke-width="4"/></g><g opacity=".9"><path d="M162.6 60.42c-4.27-7.41-13.95-9.84-21.6-5.42" stroke="#2A3544" stroke-width="4"/><ellipse cx="142.5" cy="22.5" rx="16.5" ry="15.5" stroke="#2A3544" stroke-width="6"/></g><mask id="sidesCables02-a" style="mask-type:luminance"><rect x="15" y="27" width="16" height="22" rx="2" fill="white"/><rect x="16" y="60" width="16" height="12" rx="2" fill="white"/><rect x="137" y="42" width="16" height="22" rx="2" fill="white"/><rect x="137" width="16" height="22" rx="2" fill="white"/></mask><g mask="url(#sidesCables02-a)"><path d="M-6 0h180v76H-6z" fill="#1499da"/><path d="M-6 0h180v76H-6z" fill="white" fill-opacity=".3"/></g></g><g id="top-bulb01-ecaf09c4"><mask id="topBulb01-a" style="mask-type:luminance"><path fill-rule="evenodd" clip-rule="evenodd" d="M24 16.6a16 16 0 0 1 16-16h4a16 16 0 0 1 16 16v16a8 8 0 0 1-8 8H32a8 8 0 0 1-8-8z" fill="white"/><rect x="14" y="40.59" width="56" height="12" rx="1" fill="white"/></mask><g mask="url(#topBulb01-a)"><path d="M-8 .6H92v52H-8z" fill="#1499da"/><path d="M-8 .6H92v52H-8z" fill="white" fill-opacity=".3"/><path fill="white" fill-opacity=".4" d="M12-2.41h60v43H12z"/><path d="M41 4.1c4.93 0 9.37 2.12 12.44 5.51" stroke="white" stroke-width="2" stroke-linecap="round"/><path d="M54.14 20.42 44 30.57v10.02h-4V30.42l-10-10 2.83-2.83 9 9h.48l9.02-9z" fill="white" fill-opacity=".8"/></g></g><g id="head-square04-ecaf09c4"><mask id="headSquare04-a" style="mask-type:luminance"><path fill-rule="evenodd" clip-rule="evenodd" d="M0 102V68.85a40 40 0 0 1 2.28-13.31L19.76 12A18 18 0 0 1 36.74 0h56.52a18 18 0 0 1 16.98 12l17.48 43.54a40 40 0 0 1 2.28 13.3V102a18 18 0 0 1-18 18H18a18 18 0 0 1-18-18" fill="white"/></mask><g mask="url(#headSquare04-a)"><path d="M-2-2h134v124H-2z" fill="#1499da"/></g></g><g id="mouth-grill03-ecaf09c4"><rect y="1" width="68" height="22" rx="5" fill="black" fill-opacity=".2"/><rect x="4" y="5" width="60" height="14" rx="2" fill="white"/><path fill="black" fill-opacity=".1" d="M14 5h4v14h-4zm24 0h4v14h-4zM26 5h4v14h-4zm24 0h4v14h-4z"/></g><g id="eyes-roundFrame01-ecaf09c4"><rect y="12" width="104" height="32" rx="16" fill="black" fill-opacity=".8"/><rect x="24" y="22" width="10" height="12" rx="2" fill="#F4F4F4"/><rect x="70" y="22" width="10" height="12" rx="2" fill="#F4F4F4"/></g><clipPath id="clip-ecaf09c4"><rect width="180" height="180" rx="0" ry="0"/></clipPath></defs><g clip-path="url(#clip-ecaf09c4)"><use transform="translate(6 66)" href="#sides-cables02-ecaf09c4"/><use transform="translate(49 -.6)" href="#top-bulb01-ecaf09c4"/><use transform="translate(25 44)" href="#head-square04-ecaf09c4"/><use transform="translate(56 128)" href="#mouth-grill03-ecaf09c4"/><use transform="translate(38 76)" href="#eyes-roundFrame01-ecaf09c4"/></g></svg>