<svg xmlns="http://www.w3.org/2000/svg" viewBox="0 0 180 180" fill="none" shape-rendering="auto" aria-hidden="true"><!-- Generated by DiceBear (https://www.dicebear.com) --><metadata xmlns:rdf="http://www.w3.org/1999/02/22-rdf-syntax-ns#" xmlns:xsi="http://www.w3.org/2001/XMLSchema-instance" xmlns:dc="http://purl.org/dc/elements/1.1/" xmlns:dcterms="http://purl.org/dc/terms/"><rdf:RDF><rdf:Description><dc:title>Bottts</dc:title><dc:creator>Pablo Stanley</dc:creator><dc:source xsi:type="dcterms:URI">https://bottts.com/</dc:source><dcterms:license xsi:type="dcterms:URI">https://bottts.com/</dcterms:license><dc:rights>Remix of “Bottts” (https://bottts.com/) by “Pablo Stanley”, licensed under “Free for personal and commercial use” (https://bottts.com/)</dc:rights></rdf:Description></rdf:RDF></metadata><defs><g id="sides-antenna01-6144236b"><mask id="sidesAntenna01-a" style="mask-type:luminance"><rect y="31" width="36" height="14" rx="4" fill="white"/><rect x="12" y="14" width="36" height="48" rx="4" fill="white"/><rect x="120" y="28" width="36" height="24" rx="4" fill="white"/><path fill="white" d="M5 11h2v20H5z"/></mask><g mask="url(#sidesAntenna01-a)"><path d="M-6 0h180v76H-6z" fill="#8f8f8f"/><path fill="white" fill-opacity=".3" d="M-6 0h180v76H-6z"/><path fill="black" fill-opacity=".1" d="M-6 38h180v38H-6z"/></g><path fill="white" fill-opacity=".4" d="M5 11h2v20H5z"/><circle cx="6" cy="8" r="4" fill="#FFEA8F"/><circle cx="7" cy="7" r="2" fill="white"/></g><g id="top-horns-6144236b"><mask id="topHorns-a" style="mask-type:luminance"><path fill="white" d="M0 40.59h26v12H0zm84 .01H58v12h26z"/><path fill-rule="evenodd" clip-rule="evenodd" d="M8.52 14.34c0 7.84 5.39 20.7 13.72 27.03H3.36S-.16 23.27 5.43 14.7c.9-1.38 3.1-1.42 3.1-.36M76 14.6c.66 7.03-5.77 20.62-14 27h19s3.14-18.27-2-27c-1-1.7-3.14-1.45-3 0" fill="white"/></mask><g mask="url(#topHorns-a)"><path d="M-8 .6H92v52H-8z" fill="#8f8f8f"/><path d="M-8 .6H92v52H-8z" fill="white" fill-opacity=".3"/><path fill="black" fill-opacity=".4" d="M-8 40.59H92v12H-8z"/><path fill-rule="evenodd" clip-rule="evenodd" d="M7.46 13.6h16.1v27H12.83c-7.45-7.86-5.36-27-5.36-27m69.35 0h7.75v27H73.82c5.75-7.81 3-27 3-27" fill="white" fill-opacity=".4"/></g></g><g id="head-square02-6144236b"><mask id="headSquare02-a" style="mask-type:luminance"><path d="M0 12A12 12 0 0 1 12 0h106a12 12 0 0 1 12 12v70a38 38 0 0 1-38 38H38A38 38 0 0 1 0 82z" fill="white"/></mask><g mask="url(#headSquare02-a)"><path d="M-2-2h134v124H-2z" fill="#8f8f8f"/></g></g><g id="mouth-smile02-6144236b"><path fill-rule="evenodd" clip-rule="evenodd" d="M14 6.22C14 17.78 20.47 24 34 24c13.52 0 20-6.34 20-17.78C54 5.5 53.17 4 51 4H17c-2.05 0-3 1.38-3 2.22" fill="black" fill-opacity=".8"/><mask id="mouthSmile02-a" style="mask-type:luminance"><path fill-rule="evenodd" clip-rule="evenodd" d="M14 6.22C14 17.78 20.47 24 34 24c13.52 0 20-6.34 20-17.78C54 5.5 53.17 4 51 4H17c-2.05 0-3 1.38-3 2.22" fill="white"/></mask><g mask="url(#mouthSmile02-a)"><rect x="26" y="-2" width="16" height="14" rx="2" fill="white"/></g></g><g id="eyes-bulging-6144236b"><circle cx="28" cy="24" r="18" fill="black" fill-opacity=".2"/><circle cx="74" cy="24" r="18" fill="black" fill-opacity=".2"/><circle cx="28" cy="24" r="15" fill="#F1EEDA"/><circle cx="74" cy="24" r="15" fill="#F1EEDA"/><rect x="26" y="15" width="10" height="10" rx="2" fill="black" fill-opacity=".8"/><rect x="74" y="15" width="10" height="10" rx="2" fill="black" fill-opacity=".8"/></g><clipPath id="clip-6144236b"><rect width="180" height="180" rx="0" ry="0"/></clipPath></defs><g clip-path="url(#clip-6144236b)"><use transform="translate(6 66)" href="#sides-antenna01-6144236b"/><use transform="translate(49 -.6)" href="#top-horns-6144236b"/><use transform="translate(25 44)" href="#head-square02-6144236b"/><use transform="translate(56 128)" href="#mouth-smile02-6144236b"/><use transform="translate(38 76)" href="#eyes-bulging-6144236b"/></g></svg>