<svg xmlns="http://www.w3.org/2000/svg" viewBox="0 0 180 180" fill="none" shape-rendering="auto" aria-hidden="true"><!-- Generated by DiceBear (https://www.dicebear.com) --><metadata xmlns:rdf="http://www.w3.org/1999/02/22-rdf-syntax-ns#" xmlns:xsi="http://www.w3.org/2001/XMLSchema-instance" xmlns:dc="http://purl.org/dc/elements/1.1/" xmlns:dcterms="http://purl.org/dc/terms/"><rdf:RDF><rdf:Description><dc:title>Bottts</dc:title><dc:creator>Pablo Stanley</dc:creator><dc:source xsi:type="dcterms:URI">https://bottts.com/</dc:source><dcterms:license xsi:type="dcterms:URI">https://bottts.com/</dcterms:license><dc:rights>Remix of “Bottts” (https://bottts.com/) by “Pablo Stanley”, licensed under “Free for personal and commercial use” (https://bottts.com/)</dc:rights></rdf:Description></rdf:RDF></metadata><defs><g id="sides-cables01-75aa7357"><path d="M32 12c-2.95 11.7-19.9 6.67-23.37 18-3.46 11.35 8.03 20 17.53 20" stroke="#2A3544" stroke-width="6" opacity=".9"/><path d="M144 55c8.4 3.49 20.1-7.6 16-16.5s-16-6.7-16-19.3" stroke="#2A3544" stroke-width="4" opacity=".9"/><mask id="sidesCables01-a" style="mask-type:luminance"><rect x="15" y="35" width="16" height="22" rx="2" fill="white"/><rect x="130" y="42" width="23" height="22" rx="2" fill="white"/><rect x="130" y="6" width="23" height="18" rx="2" fill="white"/></mask><g mask="url(#sidesCables01-a)"><path d="M-6 0h180v76H-6z" fill="#7681f5"/><path d="M-6 0h180v76H-6z" fill="white" fill-opacity=".3"/></g></g><filter id="topGlowingBulb01-a" x="16" y=".59" width="52" height="48" filterUnits="userSpaceOnUse" color-interpolation-filters="sRGB"><feFlood flood-opacity="0" result="r0"/><feColorMatrix in="SourceAlpha" values="0 0 0 0 0 0 0 0 0 0 0 0 0 0 0 0 0 0 127 0" result="r1"/><feOffset/><feGaussianBlur stdDeviation="4"/><feColorMatrix values="0 0 0 0 1 0 0 0 0 1 0 0 0 0 1 0 0 0 0.5 0"/><feBlend in2="r0" result="r2"/><feBlend in="SourceGraphic" in2="r2" result="r3"/><feColorMatrix in="SourceAlpha" values="0 0 0 0 0 0 0 0 0 0 0 0 0 0 0 0 0 0 127 0" result="r1"/><feOffset/><feGaussianBlur stdDeviation="2"/><feComposite in2="r1" operator="arithmetic" k2="-1" k3="1"/><feColorMatrix values="0 0 0 0 1 0 0 0 0 1 0 0 0 0 1 0 0 0 0.5 0"/><feBlend in2="r3" result="r4"/></filter><g id="top-glowingBulb01-75aa7357"><g filter="url(#topGlowingBulb01-a)"><path fill-rule="evenodd" clip-rule="evenodd" d="M24 24.6a16 16 0 0 1 16-16h4a16 16 0 0 1 16 16v8a8 8 0 0 1-8 8H32a8 8 0 0 1-8-8z" fill="white" fill-opacity=".3"/></g><path d="M41 12.1c4.93 0 9.37 2.12 12.44 5.51" stroke="white" stroke-width="2" stroke-linecap="round"/><path d="M54.14 23.42 44 33.57v7.02h-4v-7.17l-10-10 2.83-2.83 9 9h.48l9.02-9z" fill="white" fill-opacity=".8"/><rect x="14" y="40.59" width="56" height="12" rx="1" fill="#48494B"/></g><g id="head-square04-75aa7357"><mask id="headSquare04-a" style="mask-type:luminance"><path fill-rule="evenodd" clip-rule="evenodd" d="M0 102V68.85a40 40 0 0 1 2.28-13.31L19.76 12A18 18 0 0 1 36.74 0h56.52a18 18 0 0 1 16.98 12l17.48 43.54a40 40 0 0 1 2.28 13.3V102a18 18 0 0 1-18 18H18a18 18 0 0 1-18-18" fill="white"/></mask><g mask="url(#headSquare04-a)"><path d="M-2-2h134v124H-2z" fill="#7681f5"/></g></g><g id="mouth-square02-75aa7357"><rect x="12" y="4" width="44" height="4" rx="2" fill="black" fill-opacity=".8"/></g><g id="eyes-glow-75aa7357"><circle cx="21" cy="30" r="15" fill="white" fill-opacity=".1"/><circle cx="83" cy="30" r="15" fill="white" fill-opacity=".1"/><circle cx="21" cy="30" r="12" fill="white" fill-opacity=".1"/><circle cx="83" cy="30" r="12" fill="white" fill-opacity=".1"/><circle cx="21" cy="30" r="6" fill="white" fill-opacity=".8"/><circle cx="83" cy="30" r="6" fill="white" fill-opacity=".8"/><circle cx="21" cy="30" r="3" fill="white" fill-opacity=".8"/><circle cx="83" cy="30" r="3" fill="white" fill-opacity=".8"/></g><clipPath id="clip-75aa7357"><rect width="180" height="180" rx="0" ry="0"/></clipPath></defs><g clip-path="url(#clip-75aa7357)"><use transform="translate(6 66)" href="#sides-cables01-75aa7357"/><use transform="translate(49 -.6)" href="#top-glowingBulb01-75aa7357"/><use transform="translate(25 44)" href="#head-square04-75aa7357"/><use transform="translate(56 128)" href="#mouth-square02-75aa7357"/><use transform="translate(38 76)" href="#eyes-glow-75aa7357"/></g></svg>