<svg xmlns="http://www.w3.org/2000/svg" viewBox="0 0 180 180" fill="none" shape-rendering="auto" aria-hidden="true"><!-- Generated by DiceBear (https://www.dicebear.com) --><metadata xmlns:rdf="http://www.w3.org/1999/02/22-rdf-syntax-ns#" xmlns:xsi="http://www.w3.org/2001/XMLSchema-instance" xmlns:dc="http://purl.org/dc/elements/1.1/" xmlns:dcterms="http://purl.org/dc/terms/"><rdf:RDF><rdf:Description><dc:title>Bottts</dc:title><dc:creator>Pablo Stanley</dc:creator><dc:source xsi:type="dcterms:URI">https://bottts.com/</dc:source><dcterms:license xsi:type="dcterms:URI">https://bottts.com/</dcterms:license><dc:rights>Remix of “Bottts” (https://bottts.com/) by “Pablo Stanley”, licensed under “Free for personal and commercial use” (https://bottts.com/)</dc:rights></rdf:Description></rdf:RDF></metadata><defs><g id="sides-antenna02-3087c19b"><mask id="sidesAntenna02-a" style="mask-type:luminance"><rect x="4" y="28" width="36" height="32" rx="4" fill="white"/><path fill="white" d="M154 9h2v20h-2z"/><rect x="128" y="28" width="36" height="32" rx="4" fill="white"/></mask><g mask="url(#sidesAntenna02-a)"><path d="M-6 0h180v76H-6z" fill="#9975ea"/><path d="M-6 0h180v76H-6z" fill="white" fill-opacity=".3"/><path fill="black" fill-opacity=".1" d="M-6 38h180v38H-6z"/></g><path fill="white" fill-opacity=".4" d="M154 8h2v20h-2z"/><circle cx="155" cy="5" r="4" fill="#E1E6E8"/><circle cx="156" cy="4" r="2" fill="white"/></g><filter id="topGlowingBulb02-a" x="14" y="5.59" width="56" height="47" filterUnits="userSpaceOnUse" color-interpolation-filters="sRGB"><feFlood flood-opacity="0" result="r0"/><feColorMatrix in="SourceAlpha" values="0 0 0 0 0 0 0 0 0 0 0 0 0 0 0 0 0 0 127 0" result="r1"/><feOffset/><feGaussianBlur stdDeviation="4"/><feColorMatrix values="0 0 0 0 1 0 0 0 0 1 0 0 0 0 1 0 0 0 0.5 0"/><feBlend in2="r0" result="r2"/><feBlend in="SourceGraphic" in2="r2" result="r3"/><feColorMatrix in="SourceAlpha" values="0 0 0 0 0 0 0 0 0 0 0 0 0 0 0 0 0 0 127 0" result="r1"/><feOffset/><feGaussianBlur stdDeviation="2"/><feComposite in2="r1" operator="arithmetic" k2="-1" k3="1"/><feColorMatrix values="0 0 0 0 1 0 0 0 0 1 0 0 0 0 1 0 0 0 0.5 0"/><feBlend in2="r3" result="r4"/></filter><g id="top-glowingBulb02-3087c19b"><g filter="url(#topGlowingBulb02-a)"><path fill-rule="evenodd" clip-rule="evenodd" d="M22 33.6a20 20 0 1 1 40 0v11H22z" fill="white" fill-opacity=".3"/></g><ellipse cx="42" cy="30.59" rx="4" ry="6" fill="white" fill-opacity=".6"/><path d="M42 16.1c4.93 0 9.37 2.12 12.44 5.51m2.43 3.5q1.05 1.98 1.53 4.23" stroke="white" stroke-width="2" stroke-linecap="round"/><rect x="12" y="36.59" width="60" height="16" rx="1" fill="#48494B"/></g><g id="head-square03-3087c19b"><mask id="headSquare03-a" style="mask-type:luminance"><path fill-rule="evenodd" clip-rule="evenodd" d="M0 18A18 18 0 0 1 18 0h94a18 18 0 0 1 18 18v27.15a40 40 0 0 1-2.28 13.31L110.24 108a18 18 0 0 1-16.98 12H36.74a18 18 0 0 1-16.98-12L2.28 58.45A40 40 0 0 1 0 45.15z" fill="white"/></mask><g mask="url(#headSquare03-a)"><path d="M-2-2h134v124H-2z" fill="#9975ea"/></g></g><g id="mouth-bite-3087c19b"><rect y="1" width="68" height="22" rx="5" fill="black" fill-opacity=".2"/><rect x="4" y="5" width="60" height="14" rx="2" fill="black" fill-opacity=".6"/><path fill-rule="evenodd" clip-rule="evenodd" d="m16 13 6-8H10zm12 0 6-8H22zm12 0 6-8H34zm12 0 6-8H46z" fill="#E1E6E8"/></g><g id="eyes-shade01-3087c19b"><path d="M96 2H8c-4.5 0-8 3.5-8 8.03V28c0 4.5 3.5 8 8 8h13c8 0 11 8 18 8h27c7 0 9-8 17-8h13c4.5 0 8-3.5 8-8V10c0-4.5-3.5-8-8-8" fill="black" fill-opacity=".8"/><path d="M87 14H17c-3.5 0-5 3-5 5v2c0 2 1.5 5 5 5h12c6 0 11.62 8 17 8h14c5.38 0 9-8 15-8h12c3.5 0 5-3 5-5v-2c0-2-1.5-5-5-5" fill="#FF3D3D"/><path d="M31.4 40.78c-2.63-1.98-5.23-4.22-8.96-4.7L37.26 2h11zM15.48 36h-4L26.26 2h4z" fill="white" fill-opacity=".2"/></g><clipPath id="clip-3087c19b"><rect width="180" height="180" rx="0" ry="0"/></clipPath></defs><g clip-path="url(#clip-3087c19b)"><use transform="translate(6 66)" href="#sides-antenna02-3087c19b"/><use transform="translate(49 -.6)" href="#top-glowingBulb02-3087c19b"/><use transform="translate(25 44)" href="#head-square03-3087c19b"/><use transform="translate(56 128)" href="#mouth-bite-3087c19b"/><use transform="translate(38 76)" href="#eyes-shade01-3087c19b"/></g></svg>