<svg xmlns="http://www.w3.org/2000/svg" viewBox="0 0 180 180" fill="none" shape-rendering="auto" aria-hidden="true"><!-- Generated by DiceBear (https://www.dicebear.com) --><metadata xmlns:rdf="http://www.w3.org/1999/02/22-rdf-syntax-ns#" xmlns:xsi="http://www.w3.org/2001/XMLSchema-instance" xmlns:dc="http://purl.org/dc/elements/1.1/" xmlns:dcterms="http://purl.org/dc/terms/"><rdf:RDF><rdf:Description><dc:title>Bottts</dc:title><dc:creator>Pablo Stanley</dc:creator><dc:source xsi:type="dcterms:URI">https://bottts.com/</dc:source><dcterms:license xsi:type="dcterms:URI">https://bottts.com/</dcterms:license><dc:rights>Remix of “Bottts” (https://bottts.com/) by “Pablo Stanley”, licensed under “Free for personal and commercial use” (https://bottts.com/)</dc:rights></rdf:Description></rdf:RDF></metadata><defs><g id="sides-cables02-19d4c9a8"><g opacity=".9"><ellipse cx="26.5" cy="23" rx="16.5" ry="18" stroke="#2A3544" stroke-width="6"/><path d="M23.51 36.76c-7.4 4.29-17 1.55-21.42-6.1" stroke="#2A3544" stroke-width="4"/><ellipse cx="22.5" cy="52.5" rx="16.5" ry="14.5" stroke="#2A3544" stroke-width="4"/></g><g opacity=".9"><path d="M162.6 60.42c-4.27-7.41-13.95-9.84-21.6-5.42" stroke="#2A3544" stroke-width="4"/><ellipse cx="142.5" cy="22.5" rx="16.5" ry="15.5" stroke="#2A3544" stroke-width="6"/></g><mask id="sidesCables02-a" style="mask-type:luminance"><rect x="15" y="27" width="16" height="22" rx="2" fill="white"/><rect x="16" y="60" width="16" height="12" rx="2" fill="white"/><rect x="137" y="42" width="16" height="22" rx="2" fill="white"/><rect x="137" width="16" height="22" rx="2" fill="white"/></mask><g mask="url(#sidesCables02-a)"><path d="M-6 0h180v76H-6z" fill="#de6811"/><path d="M-6 0h180v76H-6z" fill="white" fill-opacity=".3"/></g></g><g id="top-pyramid-19d4c9a8"><mask id="topPyramid-a" style="mask-type:luminance"><path fill-rule="evenodd" clip-rule="evenodd" d="m42 8.6 32 44H10z" fill="white"/></mask><g mask="url(#topPyramid-a)"><path d="M-8 .6H92v52H-8z" fill="#de6811"/><path d="M-8 .6H92v52H-8z" fill="white" fill-opacity=".3"/><path fill="white" fill-opacity=".8" d="M42 4.59h30v48H42z"/></g></g><g id="head-round02-19d4c9a8"><mask id="headRound02-a" style="mask-type:luminance"><path fill-rule="evenodd" clip-rule="evenodd" d="M0 31v-1c.18-.48.4-1.5 1-3 .83-3.06 2.78-6.56 6-10C16.7 6.6 35.17 0 65 0s48.3 6.6 58 17c3.22 3.44 5.17 6.94 6 10 .6 1.5.82 2.52 1 3v40c0-.1-.03.5 0 1a54 54 0 0 1-1 6c-1.19 6-3.4 11.91-7 17-9.72 16.34-27.74 26-57 26s-47.28-9.66-57-26c-3.6-5.1-5.8-11-7-17a54 54 0 0 1-1-6c.03-.45 0-1.32 0-1z" fill="white"/></mask><g mask="url(#headRound02-a)"><path d="M-4-2h138v124H-4z" fill="#de6811"/></g></g><g id="mouth-square02-19d4c9a8"><rect x="12" y="4" width="44" height="4" rx="2" fill="black" fill-opacity=".8"/></g><g id="eyes-frame2-19d4c9a8"><rect x="8" y="10" width="88" height="36" rx="4" fill="black" fill-opacity=".8"/><rect x="28" y="21" width="10" height="17" rx="2" fill="#5EF2B8"/><rect x="66" y="21" width="10" height="17" rx="2" fill="#5EF2B8"/><path fill-rule="evenodd" clip-rule="evenodd" d="M83 10h5L76 46h-5z" fill="white" fill-opacity=".4"/></g><clipPath id="clip-19d4c9a8"><rect width="180" height="180" rx="0" ry="0"/></clipPath></defs><g clip-path="url(#clip-19d4c9a8)"><use transform="translate(6 66)" href="#sides-cables02-19d4c9a8"/><use transform="translate(49 -.6)" href="#top-pyramid-19d4c9a8"/><use transform="translate(25 44)" href="#head-round02-19d4c9a8"/><use transform="translate(56 128)" href="#mouth-square02-19d4c9a8"/><use transform="translate(38 76)" href="#eyes-frame2-19d4c9a8"/></g></svg>