<svg xmlns="http://www.w3.org/2000/svg" viewBox="0 0 180 180" fill="none" shape-rendering="auto" aria-hidden="true"><!-- Generated by DiceBear (https://www.dicebear.com) --><metadata xmlns:rdf="http://www.w3.org/1999/02/22-rdf-syntax-ns#" xmlns:xsi="http://www.w3.org/2001/XMLSchema-instance" xmlns:dc="http://purl.org/dc/elements/1.1/" xmlns:dcterms="http://purl.org/dc/terms/"><rdf:RDF><rdf:Description><dc:title>Bottts</dc:title><dc:creator>Pablo Stanley</dc:creator><dc:source xsi:type="dcterms:URI">https://bottts.com/</dc:source><dcterms:license xsi:type="dcterms:URI">https://bottts.com/</dcterms:license><dc:rights>Remix of “Bottts” (https://bottts.com/) by “Pablo Stanley”, licensed under “Free for personal and commercial use” (https://bottts.com/)</dc:rights></rdf:Description></rdf:RDF></metadata><defs><g id="sides-square-b6847732"><mask id="sidesSquare-a" style="mask-type:luminance"><rect x="8" y="16" width="36" height="44" rx="9" fill="white"/><rect x="124" y="16" width="36" height="44" rx="9" fill="white"/></mask><g mask="url(#sidesSquare-a)"><path d="M-6 0h180v76H-6z" fill="#ca62bb"/><path d="M-6 0h180v76H-6z" fill="white" fill-opacity=".3"/><path fill="black" fill-opacity=".1" d="M-6 38h180v38H-6z"/></g></g><g id="top-antenna-b6847732"><mask id="topAntenna-a" style="mask-type:luminance"><path d="M30 38.6a2 2 0 0 1 2-2h20a2 2 0 0 1 2 2v14H30zM40 5.59h4v31h-4z" fill="white"/></mask><g mask="url(#topAntenna-a)"><path d="M-8 .6H92v52H-8z" fill="#ca62bb"/><path d="M-8 3.6H92v52H-8z" fill="white" fill-opacity=".3"/><path fill="white" fill-opacity=".2" d="M30 36.59h24v16H30z"/></g><circle cx="42" cy="8.59" r="8" fill="#FFE65C"/><circle cx="45" cy="5.59" r="3" fill="white"/></g><g id="head-square01-b6847732"><mask id="headSquare01-a" style="mask-type:luminance"><rect width="130" height="120" rx="18" fill="white"/></mask><g mask="url(#headSquare01-a)"><path d="M-2-2h134v124H-2z" fill="#ca62bb"/></g></g><g id="mouth-smile02-b6847732"><path fill-rule="evenodd" clip-rule="evenodd" d="M14 6.22C14 17.78 20.47 24 34 24c13.52 0 20-6.34 20-17.78C54 5.5 53.17 4 51 4H17c-2.05 0-3 1.38-3 2.22" fill="black" fill-opacity=".8"/><mask id="mouthSmile02-a" style="mask-type:luminance"><path fill-rule="evenodd" clip-rule="evenodd" d="M14 6.22C14 17.78 20.47 24 34 24c13.52 0 20-6.34 20-17.78C54 5.5 53.17 4 51 4H17c-2.05 0-3 1.38-3 2.22" fill="white"/></mask><g mask="url(#mouthSmile02-a)"><rect x="26" y="-2" width="16" height="14" rx="2" fill="white"/></g></g><g id="eyes-glow-b6847732"><circle cx="21" cy="30" r="15" fill="white" fill-opacity=".1"/><circle cx="83" cy="30" r="15" fill="white" fill-opacity=".1"/><circle cx="21" cy="30" r="12" fill="white" fill-opacity=".1"/><circle cx="83" cy="30" r="12" fill="white" fill-opacity=".1"/><circle cx="21" cy="30" r="6" fill="white" fill-opacity=".8"/><circle cx="83" cy="30" r="6" fill="white" fill-opacity=".8"/><circle cx="21" cy="30" r="3" fill="white" fill-opacity=".8"/><circle cx="83" cy="30" r="3" fill="white" fill-opacity=".8"/></g><clipPath id="clip-b6847732"><rect width="180" height="180" rx="0" ry="0"/></clipPath></defs><g clip-path="url(#clip-b6847732)"><use transform="translate(6 66)" href="#sides-square-b6847732"/><use transform="translate(49 -.6)" href="#top-antenna-b6847732"/><use transform="translate(25 44)" href="#head-square01-b6847732"/><use transform="translate(56 128)" href="#mouth-smile02-b6847732"/><use transform="translate(38 76)" href="#eyes-glow-b6847732"/></g></svg>