<svg xmlns="http://www.w3.org/2000/svg" viewBox="0 0 180 180" fill="none" shape-rendering="auto" aria-hidden="true"><!-- Generated by DiceBear (https://www.dicebear.com) --><metadata xmlns:rdf="http://www.w3.org/1999/02/22-rdf-syntax-ns#" xmlns:xsi="http://www.w3.org/2001/XMLSchema-instance" xmlns:dc="http://purl.org/dc/elements/1.1/" xmlns:dcterms="http://purl.org/dc/terms/"><rdf:RDF><rdf:Description><dc:title>Bottts</dc:title><dc:creator>Pablo Stanley</dc:creator><dc:source xsi:type="dcterms:URI">https://bottts.com/</dc:source><dcterms:license xsi:type="dcterms:URI">https://bottts.com/</dcterms:license><dc:rights>Remix of “Bottts” (https://bottts.com/) by “Pablo Stanley”, licensed under “Free for personal and commercial use” (https://bottts.com/)</dc:rights></rdf:Description></rdf:RDF></metadata><defs><g id="sides-round-04571680"><mask id="sidesRound-a" style="mask-type:luminance"><ellipse cx="144" cy="38.5" rx="18" ry="22.5" fill="white"/><ellipse cx="18" cy="22.5" rx="18" ry="22.5" transform="matrix(-1 0 0 1 42 16)" fill="white"/></mask><g mask="url(#sidesRound-a)"><path d="M-6 0h180v76H-6z" fill="#15a876"/><path d="M-6 0h180v76H-6z" fill="white" fill-opacity=".3"/><path fill="black" fill-opacity=".2" d="M14 0h140v76H14z"/></g></g><g id="top-antennaCrooked-04571680"><mask id="topAntennaCrooked-a" style="mask-type:luminance"><path d="M47.54 34.98 43 45.59h-3.74l4.92-10.43-6.05-10.43 3.22-11.84 2.9.8-2.9 10.6z" fill="white"/><path fill="white" d="M30 39.59h24v13H30z"/></mask><g mask="url(#topAntennaCrooked-a)"><path d="M-8 .6H92v52H-8z" fill="#15a876"/><path d="M-8 6.6H92v52H-8z" fill="white" fill-opacity=".3"/><path fill="white" fill-opacity=".2" d="M30 39.59h24v13H30z"/></g><circle cx="42" cy="8.59" r="8" fill="#FFE65C"/><circle cx="45" cy="5.59" r="3" fill="white"/></g><g id="head-round01-04571680"><mask id="headRound01-a" style="mask-type:luminance"><path fill-rule="evenodd" clip-rule="evenodd" d="M66 0c58.35 0 64 40.69 64 78 0 33.32-25.47 42-64 42-37.46 0-66-8.69-66-42C0 40.69 7.65 0 66 0" fill="white"/></mask><g mask="url(#headRound01-a)"><path d="M-4-2h138v124H-4z" fill="#15a876"/></g></g><g id="mouth-bite-04571680"><rect y="1" width="68" height="22" rx="5" fill="black" fill-opacity=".2"/><rect x="4" y="5" width="60" height="14" rx="2" fill="black" fill-opacity=".6"/><path fill-rule="evenodd" clip-rule="evenodd" d="m16 13 6-8H10zm12 0 6-8H22zm12 0 6-8H34zm12 0 6-8H46z" fill="#E1E6E8"/></g><g id="eyes-bulging-04571680"><circle cx="28" cy="24" r="18" fill="black" fill-opacity=".2"/><circle cx="74" cy="24" r="18" fill="black" fill-opacity=".2"/><circle cx="28" cy="24" r="15" fill="#F1EEDA"/><circle cx="74" cy="24" r="15" fill="#F1EEDA"/><rect x="26" y="15" width="10" height="10" rx="2" fill="black" fill-opacity=".8"/><rect x="74" y="15" width="10" height="10" rx="2" fill="black" fill-opacity=".8"/></g><clipPath id="clip-04571680"><rect width="180" height="180" rx="0" ry="0"/></clipPath></defs><g clip-path="url(#clip-04571680)"><use transform="translate(6 66)" href="#sides-round-04571680"/><use transform="translate(49 -.6)" href="#top-antennaCrooked-04571680"/><use transform="translate(25 44)" href="#head-round01-04571680"/><use transform="translate(56 128)" href="#mouth-bite-04571680"/><use transform="translate(38 76)" href="#eyes-bulging-04571680"/></g></svg>