<svg xmlns="http://www.w3.org/2000/svg" viewBox="0 0 180 180" fill="none" shape-rendering="auto" aria-hidden="true"><!-- Generated by DiceBear (https://www.dicebear.com) --><metadata xmlns:rdf="http://www.w3.org/1999/02/22-rdf-syntax-ns#" xmlns:xsi="http://www.w3.org/2001/XMLSchema-instance" xmlns:dc="http://purl.org/dc/elements/1.1/" xmlns:dcterms="http://purl.org/dc/terms/"><rdf:RDF><rdf:Description><dc:title>Bottts</dc:title><dc:creator>Pablo Stanley</dc:creator><dc:source xsi:type="dcterms:URI">https://bottts.com/</dc:source><dcterms:license xsi:type="dcterms:URI">https://bottts.com/</dcterms:license><dc:rights>Remix of “Bottts” (https://bottts.com/) by “Pablo Stanley”, licensed under “Free for personal and commercial use” (https://bottts.com/)</dc:rights></rdf:Description></rdf:RDF></metadata><defs><g id="sides-squareAssymetric-057448df"><mask id="sidesSquareAssymetric-a" style="mask-type:luminance"><rect x="4" y="31" width="36" height="30" rx="4" fill="white"/><rect x="14" y="15" width="26" height="30" rx="4" fill="white"/><rect x="133" y="23" width="36" height="30" rx="4" fill="white"/><rect x="128" y="8" width="36" height="60" rx="4" fill="white"/></mask><g mask="url(#sidesSquareAssymetric-a)"><path d="M-6 0h180v76H-6z" fill="#e25a75"/><path d="M-6 0h180v76H-6z" fill="white" fill-opacity=".3"/><path fill="black" fill-opacity=".1" d="M-6 47h180v29H-6z"/><circle cx="155" cy="20" r="5" fill="white" fill-opacity=".6"/><circle cx="155" cy="36" r="5" fill="white" fill-opacity=".6"/></g></g><g id="top-antennaCrooked-057448df"><mask id="topAntennaCrooked-a" style="mask-type:luminance"><path d="M47.54 34.98 43 45.59h-3.74l4.92-10.43-6.05-10.43 3.22-11.84 2.9.8-2.9 10.6z" fill="white"/><path fill="white" d="M30 39.59h24v13H30z"/></mask><g mask="url(#topAntennaCrooked-a)"><path d="M-8 .6H92v52H-8z" fill="#e25a75"/><path d="M-8 6.6H92v52H-8z" fill="white" fill-opacity=".3"/><path fill="white" fill-opacity=".2" d="M30 39.59h24v13H30z"/></g><circle cx="42" cy="8.59" r="8" fill="#FFE65C"/><circle cx="45" cy="5.59" r="3" fill="white"/></g><g id="texture-dirty01-057448df"><path fill-rule="evenodd" clip-rule="evenodd" d="M33.88 128.1c4.36-30.7 13.06-4.57 33.99-9.98 9.24-2.4 1.77-12.82 8.67-17.35 5.82-3.82 13.76-.74 20.43-3.21 9.63-3.57 9.5-10.82 18.48-11.9 8.48-1.03 17.37 2.34 25.93 1.08 16.15-2.4 9.53-34.03 21.64-39.61 12.1-5.6 32.05 4.06 34.66 19.87 2.54 15.42-14.46 72.78-14.46 72.78H33.88" fill="black" fill-opacity=".2"/><path fill-rule="evenodd" clip-rule="evenodd" d="M78.93 128c37.67 0 41.6-14.75 60.13-21.5s34.79 10.71 41.02-6.27 6.2 35.95 6.2 35.95H78.93z" fill="black" fill-opacity=".1"/><path fill-rule="evenodd" clip-rule="evenodd" d="M41 10.87C52.73 9.75 48.96 22.8 53.6 22.8c1.85 0 4.03-8.46 7.38-8.46 2.46 0 2 5.5 7.33 4.91 5-.54 4.07-4 6.6-4 5.44 0 3.38 20.2 7.73 20.2s5.73-14.8 7.65-20.64c2.43-7.4 16.97-11.56 6.6-14.5H40.71" fill="black" fill-opacity=".4"/></g><g id="head-square03-057448df"><mask id="headSquare03-a" style="mask-type:luminance"><path fill-rule="evenodd" clip-rule="evenodd" d="M0 18A18 18 0 0 1 18 0h94a18 18 0 0 1 18 18v27.15a40 40 0 0 1-2.28 13.31L110.24 108a18 18 0 0 1-16.98 12H36.74a18 18 0 0 1-16.98-12L2.28 58.45A40 40 0 0 1 0 45.15z" fill="white"/></mask><g mask="url(#headSquare03-a)"><path d="M-2-2h134v124H-2z" fill="#e25a75"/><use transform="translate(-44 -7)" href="#texture-dirty01-057448df"/></g></g><g id="mouth-grill02-057448df"><rect x="24" y="6" width="6" height="14" rx="2" fill="black" fill-opacity=".6"/><rect x="10" y="6" width="6" height="14" rx="2" fill="black" fill-opacity=".6"/><rect x="38" y="6" width="6" height="14" rx="2" fill="black" fill-opacity=".6"/><rect x="52" y="6" width="6" height="14" rx="2" fill="black" fill-opacity=".6"/></g><g id="eyes-shade01-057448df"><path d="M96 2H8c-4.5 0-8 3.5-8 8.03V28c0 4.5 3.5 8 8 8h13c8 0 11 8 18 8h27c7 0 9-8 17-8h13c4.5 0 8-3.5 8-8V10c0-4.5-3.5-8-8-8" fill="black" fill-opacity=".8"/><path d="M87 14H17c-3.5 0-5 3-5 5v2c0 2 1.5 5 5 5h12c6 0 11.62 8 17 8h14c5.38 0 9-8 15-8h12c3.5 0 5-3 5-5v-2c0-2-1.5-5-5-5" fill="#FF3D3D"/><path d="M31.4 40.78c-2.63-1.98-5.23-4.22-8.96-4.7L37.26 2h11zM15.48 36h-4L26.26 2h4z" fill="white" fill-opacity=".2"/></g><clipPath id="clip-057448df"><rect width="180" height="180" rx="0" ry="0"/></clipPath></defs><g clip-path="url(#clip-057448df)"><use transform="translate(6 66)" href="#sides-squareAssymetric-057448df"/><use transform="translate(49 -.6)" href="#top-antennaCrooked-057448df"/><use transform="translate(25 44)" href="#head-square03-057448df"/><use transform="translate(56 128)" href="#mouth-grill02-057448df"/><use transform="translate(38 76)" href="#eyes-shade01-057448df"/></g></svg>