<svg xmlns="http://www.w3.org/2000/svg" viewBox="0 0 480 212" preserveAspectRatio="xMidYMid slice" width="100%" height="100%"><defs><linearGradient id="bgeb-g4" x1="0" y1="0" x2="0.15" y2="1"><stop offset="0" stop-color="#201f1b"/><stop offset="1" stop-color="#100f0d"/></linearGradient><radialGradient id="vgeb-g4" cx="50%" cy="38%" r="80%"><stop offset="0" stop-color="#000" stop-opacity="0"/><stop offset="1" stop-color="#000" stop-opacity="0.6"/></radialGradient><filter id="bleb-g4" x="-60%" y="-60%" width="220%" height="220%"><feGaussianBlur stdDeviation="34"/></filter><pattern id="hteb-g4" width="18" height="18" patternTransform="rotate(-45)" patternUnits="userSpaceOnUse"><line x1="0" y1="0" x2="0" y2="18" stroke="#f3f2f2" stroke-opacity="0.035" stroke-width="8"/></pattern></defs><rect width="480" height="212" fill="url(#bgeb-g4)"/><rect width="480" height="212" fill="url(#hteb-g4)"/><circle cx="240.0" cy="97.52000000000001" r="150" fill="#e03a2f" opacity="0.28" filter="url(#bleb-g4)"/><circle cx="76.8" cy="42.400000000000006" r="120" fill="#ff7a1a" opacity="0.16" filter="url(#bleb-g4)"/><path d="M240.0 45.5 L286.8 133.9 L193.2 133.9 Z" fill="none" stroke="#e03a2f" stroke-width="2.6" opacity="0.9"/><path d="M240.0 65.3 L269.0 120.1 L211.0 120.1 Z" fill="none" stroke="#ff7a1a" stroke-width="2.6" opacity="0.9"/><path d="M224.0 144.3 L240.0 153.3 L256.0 144.3" fill="none" stroke="#facb8d" stroke-width="2" opacity="0.70"/><path d="M224.0 154.3 L240.0 163.3 L256.0 154.3" fill="none" stroke="#facb8d" stroke-width="2" opacity="0.50"/><path d="M224.0 164.3 L240.0 173.3 L256.0 164.3" fill="none" stroke="#facb8d" stroke-width="2" opacity="0.30"/><rect width="480" height="212" fill="url(#vgeb-g4)"/><rect x="12" y="12" width="456" height="188" fill="none" stroke="#f3f2f2" stroke-opacity="0.12" stroke-width="1"/><path d="M12 27 L12 12 L27 12" fill="none" stroke="#b68235" stroke-opacity="0.75" stroke-width="1.3"/><path d="M468 27 L468 12 L453 12" fill="none" stroke="#b68235" stroke-opacity="0.75" stroke-width="1.3"/><path d="M12 185 L12 200 L27 200" fill="none" stroke="#b68235" stroke-opacity="0.75" stroke-width="1.3"/><path d="M468 185 L468 200 L453 200" fill="none" stroke="#b68235" stroke-opacity="0.75" stroke-width="1.3"/></svg>