<svg xmlns="http://www.w3.org/2000/svg" viewBox="0 0 480 212" preserveAspectRatio="xMidYMid slice" width="100%" height="100%"><defs><linearGradient id="bgeb-g2" x1="0" y1="0" x2="0.15" y2="1"><stop offset="0" stop-color="#201f1b"/><stop offset="1" stop-color="#100f0d"/></linearGradient><radialGradient id="vgeb-g2" cx="50%" cy="38%" r="80%"><stop offset="0" stop-color="#000" stop-opacity="0"/><stop offset="1" stop-color="#000" stop-opacity="0.6"/></radialGradient><filter id="bleb-g2" x="-60%" y="-60%" width="220%" height="220%"><feGaussianBlur stdDeviation="34"/></filter><pattern id="hteb-g2" width="18" height="18" patternTransform="rotate(-45)" patternUnits="userSpaceOnUse"><line x1="0" y1="0" x2="0" y2="18" stroke="#f3f2f2" stroke-opacity="0.035" stroke-width="8"/></pattern></defs><rect width="480" height="212" fill="url(#bgeb-g2)"/><rect width="480" height="212" fill="url(#hteb-g2)"/><circle cx="240.0" cy="97.52000000000001" r="150" fill="#c8aa6e" opacity="0.28" filter="url(#bleb-g2)"/><circle cx="76.8" cy="42.400000000000006" r="120" fill="#1e9de0" opacity="0.16" filter="url(#bleb-g2)"/><polygon points="240.0,45.5 285.0,71.5 285.0,123.5 240.0,149.5 195.0,123.5 195.0,71.5" fill="none" stroke="#c8aa6e" stroke-width="2.2" opacity="0.9"/><polygon points="240.0,63.2 269.7,80.4 269.7,114.7 240.0,131.8 210.3,114.7 210.3,80.4" fill="none" stroke="#1e9de0" stroke-width="2.2" opacity="0.9"/><polygon points="240.0,79.8 255.3,88.7 255.3,106.4 240.0,115.2 224.7,106.4 224.7,88.7" fill="none" stroke="#facb8d" stroke-width="2.2" opacity="0.9"/><rect x="234.0" y="91.52000000000001" width="12" height="12" transform="rotate(45 240.0 97.52000000000001)" fill="#facb8d"/><rect width="480" height="212" fill="url(#vgeb-g2)"/><rect x="12" y="12" width="456" height="188" fill="none" stroke="#f3f2f2" stroke-opacity="0.12" stroke-width="1"/><path d="M12 27 L12 12 L27 12" fill="none" stroke="#b68235" stroke-opacity="0.75" stroke-width="1.3"/><path d="M468 27 L468 12 L453 12" fill="none" stroke="#b68235" stroke-opacity="0.75" stroke-width="1.3"/><path d="M12 185 L12 200 L27 200" fill="none" stroke="#b68235" stroke-opacity="0.75" stroke-width="1.3"/><path d="M468 185 L468 200 L453 200" fill="none" stroke="#b68235" stroke-opacity="0.75" stroke-width="1.3"/></svg>